<svg width="34" height="34" viewBox="0 0 34 34" fill="none" xmlns="http://www.w3.org/2000/svg">
<path d="M14.7966 0.117813C7.12676 0.968873 0.957568 7.26672 0.123893 14.9263C-0.876516 23.4369 4.29227 30.756 11.6286 33.1389V29.2241C11.6286 29.2241 10.9617 29.3943 10.128 29.3943C7.7937 29.3943 6.79329 27.3517 6.62655 26.1602C6.45982 25.4794 6.12635 24.9688 5.62615 24.4581C5.12594 24.2879 4.95921 24.2879 4.95921 24.1177C4.95921 23.7773 5.45941 23.7773 5.62615 23.7773C6.62655 23.7773 7.46023 24.9688 7.7937 25.4794C8.62737 26.8411 9.62778 27.1815 10.128 27.1815C10.7949 27.1815 11.2951 27.0113 11.6286 26.8411C11.7953 25.6496 12.2955 24.4581 13.2959 23.7773C9.46105 22.9262 6.62655 20.7135 6.62655 16.9688C6.62655 15.0965 7.46023 13.2241 8.62737 11.8624C8.46064 11.522 8.2939 10.671 8.2939 9.47947C8.2939 8.79862 8.2939 7.77735 8.79411 6.75608C8.79411 6.75608 11.1284 6.75608 13.4627 8.96884C14.2964 8.62841 15.4635 8.4582 16.6306 8.4582C17.7978 8.4582 18.9649 8.62841 19.9653 8.96884C22.1329 6.75608 24.6339 6.75608 24.6339 6.75608C24.9674 7.77735 24.9674 8.79862 24.9674 9.47947C24.9674 10.8412 24.8007 11.522 24.6339 11.8624C25.8011 13.2241 26.6347 14.9263 26.6347 16.9688C26.6347 20.7135 23.8002 22.9262 19.9653 23.7773C20.9658 24.6283 21.6327 26.1602 21.6327 27.6922V33.3092C28.4688 31.0964 33.3041 24.6283 33.3041 17.139C33.3041 6.92629 24.8007 -1.07367 14.7966 0.117813Z" fill="#4A4A4A"/>
</svg>
