<svg width="34" height="34" viewBox="0 0 34 34" fill="none" xmlns="http://www.w3.org/2000/svg">
<path d="M16.6521 0.00646973C7.45596 0.00646973 0 7.46356 0 16.661C0 25.8585 7.45596 33.3156 16.6521 33.3156C25.8482 33.3156 33.3041 25.8585 33.3041 16.661C33.3041 7.46356 25.8482 0.00646973 16.6521 0.00646973ZM10.402 7.50519C11.5704 7.50519 12.3489 8.28379 12.3489 9.32193C12.3489 10.3601 11.5704 11.1387 10.2729 11.1387C9.10452 11.1401 8.32603 10.3601 8.32603 9.32193C8.32603 8.28379 9.10452 7.50519 10.402 7.50519ZM12.4891 23.6005H8.32603V12.4974H12.4891V23.6005ZM26.3658 23.6005H22.447V17.5326C22.447 15.8547 21.4021 15.4675 21.0107 15.4675C20.6194 15.4675 19.3122 15.7256 19.3122 17.5326C19.3122 17.7908 19.3122 23.6005 19.3122 23.6005H15.2644V12.4974H19.3136V14.0463C19.8354 13.1428 20.8803 12.4974 22.8397 12.4974C24.7991 12.4974 26.3658 14.0463 26.3658 17.5326V23.6005Z" fill="#4A4A4A"/>
</svg>
